<?xml version="1.0" encoding="UTF-8"?>
<svg version="1.1" xmlns="http://www.w3.org/2000/svg" width="780" height="780">
<path d="M0 0 C257.4 0 514.8 0 780 0 C780 257.4 780 514.8 780 780 C522.6 780 265.2 780 0 780 C0 522.6 0 265.2 0 0 Z " fill="#000000" transform="translate(0,0)"/>
<path d="M0 0 C1.66035278 -0.00326294 1.66035278 -0.00326294 3.35424805 -0.0065918 C4.52125244 -0.00183838 5.68825684 0.00291504 6.890625 0.0078125 C8.0969458 0.01192139 9.3032666 0.01603027 10.54614258 0.02026367 C47.72502816 0.25084962 47.72502816 0.25084962 63.140625 7.1328125 C63.76710938 7.38417969 64.39359375 7.63554687 65.0390625 7.89453125 C74.65676279 12.09514738 81.39496114 20.18309931 87.7890625 28.2265625 C107.0943896 52.08563785 132.97762543 62.10477133 162.84765625 67.4375 C173.76634816 69.74298892 183.72574288 74.0211466 190.328125 83.2578125 C199.0176791 97.38716876 202.31617127 113.69703943 204.265625 129.9453125 C204.42160156 131.13833984 204.57757812 132.33136719 204.73828125 133.56054688 C205.26185566 137.7469786 205.72029853 141.934917 206.140625 146.1328125 C206.23062775 147.02762329 206.32063049 147.92243408 206.4133606 148.84436035 C208.18228698 167.10101204 208.42166259 185.25633751 208.33624268 203.57507324 C208.32547955 206.46913982 208.32582491 209.36315911 208.32623196 212.2572422 C208.32544444 240.57900629 207.63615523 268.81931249 205.46606445 297.06884766 C205.1971782 300.5855903 204.94280132 304.10320076 204.68945312 307.62109375 C204.51906924 309.9037087 204.34787752 312.18626352 204.17578125 314.46875 C204.10174576 315.49793549 204.02771027 316.52712097 203.95143127 317.5874939 C202.5538223 335.39060822 202.5538223 335.39060822 198.015625 339.3828125 C178.15942769 352.01206953 153.04507167 352.28982833 130.34375 352.30078125 C128.74070204 352.304009 127.13765434 352.30737409 125.53460693 352.31086731 C122.18631308 352.31681631 118.83804485 352.31871189 115.48974609 352.31811523 C112.11176139 352.31803443 108.73391363 352.32490921 105.35595703 352.33862305 C86.6953173 352.41322353 68.21120874 352.27657515 49.62359619 350.38406372 C47.34969475 350.15396821 45.07550484 349.94641788 42.79833984 349.75170898 C29.10540404 348.56632155 15.6036828 347.17911687 2.28710938 343.69189453 C-0.05269453 343.08245971 -2.40028121 342.51135566 -4.75 341.94140625 C-28.446296 336.09026887 -49.21759163 324.91112444 -67.859375 309.1328125 C-68.74367188 308.39546875 -69.62796875 307.658125 -70.5390625 306.8984375 C-87.07576186 292.56350831 -97.80218348 274.63337541 -104.859375 254.1328125 C-105.21 253.32714844 -105.560625 252.52148438 -105.921875 251.69140625 C-107.22426051 248.13697912 -107.80251473 244.54630523 -108.421875 240.8203125 C-108.54755859 240.09908203 -108.67324219 239.37785156 -108.80273438 238.63476562 C-114.68852162 204.27532697 -108.92035797 171.37839781 -89.11938477 142.47583008 C-84.49396173 135.93965295 -79.39639105 129.92103533 -73.859375 124.1328125 C-73.31152344 123.53339844 -72.76367188 122.93398438 -72.19921875 122.31640625 C-53.20928082 102.20666854 -23.87241977 88.31792278 3.76342773 87.00854492 C38.19893304 86.05438277 69.65828175 97.24291994 95.58203125 120.3046875 C114.30161158 138.14526145 129.35862355 163.93545883 135.140625 189.1328125 C135.47707031 190.51726562 135.47707031 190.51726562 135.8203125 191.9296875 C140.23076174 213.31734548 136.25107284 234.87231955 129.140625 255.1328125 C128.62242187 256.65261719 128.62242187 256.65261719 128.09375 258.203125 C122.77516065 272.34748944 113.53360789 284.36157547 103.140625 295.1328125 C102.02876754 296.4388038 100.92403585 297.75091124 99.828125 299.0703125 C95.21268743 304.38406686 89.91993279 309.0178716 84.69921875 313.72265625 C83.30519032 314.98392007 81.92505988 316.26050545 80.546875 317.5390625 C70.30853116 326.93589863 61.1106763 329.78038191 47.14453125 329.2421875 C37.2237817 328.70070409 27.93193727 326.74404092 18.48046875 323.83984375 C13.88591685 322.86719592 10.5844304 323.64130428 6.203125 325.1328125 C-0.22737451 327.23256744 -6.72548265 327.31505218 -13.421875 327.3203125 C-14.24623047 327.33255859 -15.07058594 327.34480469 -15.91992188 327.35742188 C-21.73746056 327.37137281 -26.48286484 326.89996108 -31.296875 323.3203125 C-32.859375 321.1328125 -32.859375 321.1328125 -32.921875 318.6328125 C-31.52523528 315.3466014 -29.83001938 314.06718559 -26.859375 312.1328125 C-17.28608411 309.16363446 -4.90379536 310.47859798 4.46484375 313.4765625 C8.01414173 314.34704726 10.48772181 314.65521693 14.140625 314.1328125 C16.99474205 312.21132654 19.24219954 309.83219313 21.578125 307.3203125 C22.55664429 306.30602173 22.55664429 306.30602173 23.55493164 305.27124023 C28.62881005 299.91937571 33.11380566 294.32099175 37.140625 288.1328125 C35.903125 288.2153125 34.665625 288.2978125 33.390625 288.3828125 C23.83553281 288.35271772 15.07313022 284.63099209 8.140625 278.1328125 C6.10409683 275.83519097 4.50600046 273.86356343 3.140625 271.1328125 C2.24859375 271.17921875 1.3565625 271.225625 0.4375 271.2734375 C-0.73296875 271.30953125 -1.9034375 271.345625 -3.109375 271.3828125 C-4.26953125 271.42921875 -5.4296875 271.475625 -6.625 271.5234375 C-9.859375 271.1328125 -9.859375 271.1328125 -12.21875 269.2421875 C-16.01609923 264.35988135 -15.45231002 259.09704128 -14.859375 253.1328125 C-11.88224684 242.22635762 -4.81669219 230.99563695 2.140625 222.1328125 C1.19703125 222.38675781 0.2534375 222.64070312 -0.71875 222.90234375 C-1.64143677 223.1487561 -1.64143677 223.1487561 -2.58276367 223.40014648 C-3.9490487 223.76768226 -5.31378367 224.14102316 -6.67700195 224.51977539 C-9.83032673 225.38472307 -12.86432253 226.13353885 -16.10546875 226.609375 C-26.12023568 228.17875415 -30.78322391 234.64783405 -36.859375 242.1328125 C-45.90333545 252.83754013 -55.78665855 261.08187895 -67.859375 268.1328125 C-68.54386719 268.53886719 -69.22835937 268.94492187 -69.93359375 269.36328125 C-73.22427134 270.93836963 -76.50870369 271.25532987 -80.12109375 271.296875 C-80.89670654 271.30581787 -81.67231934 271.31476074 -82.47143555 271.32397461 C-85.93697592 271.31865991 -89.39546418 271.23909158 -92.859375 271.1328125 C-86.75774517 281.56249647 -80.34938586 290.54188026 -71.859375 299.1328125 C-70.82103516 300.27943359 -70.82103516 300.27943359 -69.76171875 301.44921875 C-62.800454 308.94699716 -54.34119718 314.50719847 -45.859375 320.1328125 C-44.84875 320.80570313 -43.838125 321.47859375 -42.796875 322.171875 C-22.68595883 334.68406432 0.30245529 339.17160279 23.328125 342.8828125 C24.62137695 343.09381592 25.91462891 343.30481934 27.24707031 343.5222168 C44.77312317 346.21385978 62.333807 346.28545451 80.02734375 346.265625 C82.18528759 346.26630092 84.34323135 346.26727333 86.50117493 346.26852417 C90.99143204 346.26998664 95.48166907 346.26789313 99.97192383 346.26318359 C105.68705938 346.25747681 111.40214806 346.26078063 117.11728191 346.26675606 C121.56230515 346.27039227 126.0073175 346.26920928 130.45234108 346.26662827 C132.55837828 346.26596798 134.66441651 346.26675545 136.7704525 346.26910782 C168.0525844 347.09495241 168.0525844 347.09495241 196.36328125 335.47265625 C200.75812908 329.68691152 200.51099357 321.73779268 200.73828125 314.7578125 C200.79706703 313.2572229 200.79706703 313.2572229 200.85704041 311.72631836 C200.98026892 308.52872336 201.09180273 305.33084169 201.203125 302.1328125 C201.28115408 300.07939856 201.35992516 298.02601268 201.43945312 295.97265625 C201.64674911 290.53907123 201.83579683 285.10500237 202.01919556 279.67056274 C202.14536936 275.99458939 202.28009717 272.31898064 202.41479492 268.64331055 C203.07663355 249.94340222 203.32852911 231.26118399 203.32592773 212.55004883 C203.32584615 209.47479413 203.33287113 206.39968741 203.34643555 203.32446289 C203.45572045 178.08837817 202.93866244 152.91223834 199.328125 127.8828125 C199.15853271 126.68809326 198.98894043 125.49337402 198.81420898 124.26245117 C196.26467929 107.27901521 192.29003831 90.15162205 179.140625 78.1328125 C173.22177949 73.77090756 166.27796443 73.03687549 159.140625 72.1328125 C159.88119141 73.16341797 159.88119141 73.16341797 160.63671875 74.21484375 C161.27738281 75.11589844 161.91804688 76.01695312 162.578125 76.9453125 C163.21621094 77.83863281 163.85429688 78.73195313 164.51171875 79.65234375 C167.89412252 84.80300656 167.72687536 90.16143379 167.140625 96.1328125 C165.3458502 101.8523057 160.96316923 105.80067929 156.140625 109.1328125 C150.61441994 111.96017323 144.20228756 111.88857248 138.140625 111.1328125 C131.9857626 108.97953481 127.7967202 105.45076916 124.140625 100.1328125 C121.40123156 94.2958717 121.01299019 88.07615817 122.79296875 81.8515625 C125.88836692 74.94337774 131.62099804 70.68897266 138.140625 67.1328125 C133.34137824 64.54121925 128.62480252 62.56539251 123.453125 60.8203125 C106.0122214 54.68335284 95.11987082 45.29013827 84.22485352 30.69213867 C72.2699751 14.74020945 58.49697519 8.92840522 39.140625 6.1328125 C33.80496828 5.47076466 28.51110263 5.22908997 23.140625 5.1328125 C22.03154785 5.10703125 20.9224707 5.08125 19.77978516 5.0546875 C-10.46050974 4.42377771 -32.45805341 7.61463038 -55.48828125 28.8125 C-57.73713077 31.01318635 -59.83967465 33.27485049 -61.921875 35.6328125 C-83.27852661 59.74394391 -103.55466445 73.73787247 -136.48510742 75.92285156 C-146.15997365 76.43866204 -155.86117017 76.48005689 -165.546875 76.6328125 C-183.46514873 76.9043104 -183.46514873 76.9043104 -201.37109375 77.58984375 C-202.10341721 77.62561523 -202.83574066 77.66138672 -203.59025574 77.69824219 C-221.2325814 78.48908434 -221.2325814 78.48908434 -235.859375 87.1328125 C-249.84832878 105.85294809 -253.74970837 127.93969212 -255.9921875 150.59375 C-256.08019812 151.4781885 -256.16820873 152.36262699 -256.25888634 153.27386665 C-258.24682128 173.77298482 -258.36597591 194.18005988 -258.19232178 214.75695801 C-258.1650851 218.50456271 -258.15652633 222.25210428 -258.14860725 225.9997921 C-258.10832616 244.75257379 -257.9025328 263.50448026 -257.51961327 282.25346565 C-257.48379826 284.03671358 -257.45049246 285.82001412 -257.42000771 287.60336113 C-257.55083979 313.62640169 -257.55083979 313.62640169 -245.15234375 335.34375 C-234.85274833 343.37989089 -222.24802916 344.15276714 -209.6015625 344.68359375 C-208.67894119 344.72371582 -207.75631989 344.76383789 -206.80574036 344.80517578 C-191.06315164 345.42328197 -175.29917543 345.46824831 -159.546875 345.6328125 C-140.50836597 345.83343547 -121.47359403 346.05207248 -102.44140625 346.6015625 C-101.40648324 346.62977333 -101.40648324 346.62977333 -100.35065269 346.65855408 C-93.46124909 346.84980319 -86.67849334 347.10220984 -79.859375 348.1328125 C-79.859375 348.7928125 -79.859375 349.4528125 -79.859375 350.1328125 C-96.33346952 350.1563054 -112.80755851 350.1738714 -129.2816658 350.18462467 C-136.93306289 350.18975313 -144.58444949 350.19672901 -152.23583984 350.20825195 C-158.91467794 350.21830533 -165.59350843 350.22469092 -172.27235389 350.22690099 C-175.79974546 350.22819026 -179.3271153 350.23116021 -182.85449982 350.23854256 C-208.10017395 350.28903472 -208.10017395 350.28903472 -220.40161133 349.74707031 C-221.1940411 349.71597199 -221.98647087 349.68487368 -222.80291367 349.65283298 C-228.76223728 349.3376655 -233.31565662 348.05319048 -238.296875 344.8203125 C-238.97556641 344.42908203 -239.65425781 344.03785156 -240.35351562 343.63476562 C-251.0364337 337.35008309 -255.63319446 330.47515955 -259.015625 318.609375 C-263.22311816 301.27294484 -263.01670026 283.06862745 -262.9921875 265.328125 C-262.99286501 263.55296821 -262.9938387 261.77781151 -262.99508667 260.00265503 C-262.99654958 256.29652008 -262.99445951 252.59040943 -262.98974609 248.88427734 C-262.98412406 244.24931608 -262.98738917 239.61441318 -262.99318027 234.97945404 C-263.01231541 216.97596657 -262.9297392 198.98164667 -262.42578125 180.984375 C-262.40716663 180.29149509 -262.38855202 179.59861519 -262.36937332 178.88473892 C-260.39147381 107.49183824 -260.39147381 107.49183824 -237.859375 83.1328125 C-229.2665913 75.56787374 -220.97328539 73.91754192 -209.859375 73.5078125 C-208.98925781 73.46914063 -208.11914062 73.43046875 -207.22265625 73.390625 C-205.10187014 73.29740363 -202.98065315 73.21407114 -200.859375 73.1328125 C-201.81199219 72.61332031 -202.76460937 72.09382813 -203.74609375 71.55859375 C-205.01326659 70.85460884 -206.28017998 70.15015678 -207.546875 69.4453125 C-208.17271484 69.10564453 -208.79855469 68.76597656 -209.44335938 68.41601562 C-213.52642954 66.12864124 -216.75851671 63.71473853 -219.859375 60.1328125 C-220.609375 57.1953125 -220.609375 57.1953125 -219.859375 54.1328125 C-214.74930373 47.75708891 -206.71533266 44.49429214 -198.859375 43.1328125 C-197.25616232 43.04183307 -195.6499638 42.99509198 -194.04418945 42.98754883 C-193.11584793 42.98116898 -192.18750641 42.97478912 -191.23103333 42.96821594 C-189.74188667 42.96654671 -189.74188667 42.96654671 -188.22265625 42.96484375 C-186.67072823 42.95985115 -186.67072823 42.95985115 -185.08744812 42.95475769 C-182.89953047 42.94970115 -180.71160513 42.94734897 -178.52368164 42.94750977 C-175.2012027 42.94533173 -171.8790605 42.92718556 -168.55664062 42.90820312 C-166.42448029 42.90526713 -164.2923184 42.90328372 -162.16015625 42.90234375 C-161.17751297 42.89515823 -160.19486969 42.88797272 -159.18244934 42.88056946 C-142.49284408 42.93495735 -142.49284408 42.93495735 -136.359375 48.1328125 C-135.7303125 48.6484375 -135.10125 49.1640625 -134.453125 49.6953125 C-130.88909268 52.90992988 -130.88909268 52.90992988 -130.484375 55.9453125 C-130.96174185 60.00293068 -131.90254696 61.32382586 -134.859375 64.1328125 C-138.34987546 66.23877207 -141.99583138 67.80209367 -145.796875 69.2578125 C-148.0354637 69.94437809 -148.0354637 69.94437809 -148.859375 72.1328125 C-112.92715662 71.24152409 -92.10858329 60.76707286 -67.17578125 35.359375 C-66.17290317 34.34174601 -65.16997319 33.32416817 -64.16699219 32.30664062 C-62.22046859 30.33101278 -60.28992725 28.34148537 -58.36816406 26.34179688 C-42.61340749 10.27050131 -22.96083829 0.02628817 0 0 Z " fill="#010101" transform="translate(416.859375,199.8671875)"/>
<path d="M0 0 C1.66035278 -0.00326294 1.66035278 -0.00326294 3.35424805 -0.0065918 C4.52125244 -0.00183838 5.68825684 0.00291504 6.890625 0.0078125 C8.0969458 0.01192139 9.3032666 0.01603027 10.54614258 0.02026367 C47.72502816 0.25084962 47.72502816 0.25084962 63.140625 7.1328125 C63.76710938 7.38417969 64.39359375 7.63554687 65.0390625 7.89453125 C74.65676279 12.09514738 81.39496114 20.18309931 87.7890625 28.2265625 C107.0943896 52.08563785 132.97762543 62.10477133 162.84765625 67.4375 C173.76634816 69.74298892 183.72574288 74.0211466 190.328125 83.2578125 C199.0176791 97.38716876 202.31617127 113.69703943 204.265625 129.9453125 C204.42160156 131.13833984 204.57757812 132.33136719 204.73828125 133.56054688 C205.26185566 137.7469786 205.72029853 141.934917 206.140625 146.1328125 C206.23062775 147.02762329 206.32063049 147.92243408 206.4133606 148.84436035 C208.18228698 167.10101204 208.42166259 185.25633751 208.33624268 203.57507324 C208.32547955 206.46913982 208.32582491 209.36315911 208.32623196 212.2572422 C208.32544444 240.57900629 207.63615523 268.81931249 205.46606445 297.06884766 C205.1971782 300.5855903 204.94280132 304.10320076 204.68945312 307.62109375 C204.51906924 309.9037087 204.34787752 312.18626352 204.17578125 314.46875 C204.10174576 315.49793549 204.02771027 316.52712097 203.95143127 317.5874939 C202.5538223 335.39060822 202.5538223 335.39060822 198.015625 339.3828125 C178.15942769 352.01206953 153.04507167 352.28982833 130.34375 352.30078125 C128.74070204 352.304009 127.13765434 352.30737409 125.53460693 352.31086731 C122.18631308 352.31681631 118.83804485 352.31871189 115.48974609 352.31811523 C112.11176139 352.31803443 108.73391363 352.32490921 105.35595703 352.33862305 C86.6953173 352.41322353 68.21120874 352.27657515 49.62359619 350.38406372 C47.34969475 350.15396821 45.07550484 349.94641788 42.79833984 349.75170898 C29.10540404 348.56632155 15.6036828 347.17911687 2.28710938 343.69189453 C-0.05269453 343.08245971 -2.40028121 342.51135566 -4.75 341.94140625 C-28.446296 336.09026887 -49.21759163 324.91112444 -67.859375 309.1328125 C-68.74367188 308.39546875 -69.62796875 307.658125 -70.5390625 306.8984375 C-87.07576186 292.56350831 -97.80218348 274.63337541 -104.859375 254.1328125 C-105.21 253.32714844 -105.560625 252.52148438 -105.921875 251.69140625 C-107.22426051 248.13697912 -107.80251473 244.54630523 -108.421875 240.8203125 C-108.54755859 240.09908203 -108.67324219 239.37785156 -108.80273438 238.63476562 C-114.68852162 204.27532697 -108.92035797 171.37839781 -89.11938477 142.47583008 C-84.49396173 135.93965295 -79.39639105 129.92103533 -73.859375 124.1328125 C-73.31152344 123.53339844 -72.76367188 122.93398438 -72.19921875 122.31640625 C-53.20928082 102.20666854 -23.87241977 88.31792278 3.76342773 87.00854492 C38.19893304 86.05438277 69.65828175 97.24291994 95.58203125 120.3046875 C114.30161158 138.14526145 129.35862355 163.93545883 135.140625 189.1328125 C135.47707031 190.51726562 135.47707031 190.51726562 135.8203125 191.9296875 C140.23076174 213.31734548 136.25107284 234.87231955 129.140625 255.1328125 C128.62242187 256.65261719 128.62242187 256.65261719 128.09375 258.203125 C122.77516065 272.34748944 113.53360789 284.36157547 103.140625 295.1328125 C102.02876754 296.4388038 100.92403585 297.75091124 99.828125 299.0703125 C95.21268743 304.38406686 89.91993279 309.0178716 84.69921875 313.72265625 C83.30519032 314.98392007 81.92505988 316.26050545 80.546875 317.5390625 C70.30853116 326.93589863 61.1106763 329.78038191 47.14453125 329.2421875 C37.2237817 328.70070409 27.93193727 326.74404092 18.48046875 323.83984375 C13.88591685 322.86719592 10.5844304 323.64130428 6.203125 325.1328125 C-0.22737451 327.23256744 -6.72548265 327.31505218 -13.421875 327.3203125 C-14.24623047 327.33255859 -15.07058594 327.34480469 -15.91992188 327.35742188 C-21.73746056 327.37137281 -26.48286484 326.89996108 -31.296875 323.3203125 C-32.859375 321.1328125 -32.859375 321.1328125 -32.921875 318.6328125 C-31.52523528 315.3466014 -29.83001938 314.06718559 -26.859375 312.1328125 C-17.28608411 309.16363446 -4.90379536 310.47859798 4.46484375 313.4765625 C8.01414173 314.34704726 10.48772181 314.65521693 14.140625 314.1328125 C16.99474205 312.21132654 19.24219954 309.83219313 21.578125 307.3203125 C22.55664429 306.30602173 22.55664429 306.30602173 23.55493164 305.27124023 C28.62881005 299.91937571 33.11380566 294.32099175 37.140625 288.1328125 C35.903125 288.2153125 34.665625 288.2978125 33.390625 288.3828125 C23.83553281 288.35271772 15.07313022 284.63099209 8.140625 278.1328125 C6.10409683 275.83519097 4.50600046 273.86356343 3.140625 271.1328125 C2.24859375 271.17921875 1.3565625 271.225625 0.4375 271.2734375 C-0.73296875 271.30953125 -1.9034375 271.345625 -3.109375 271.3828125 C-4.26953125 271.42921875 -5.4296875 271.475625 -6.625 271.5234375 C-9.859375 271.1328125 -9.859375 271.1328125 -12.21875 269.2421875 C-16.01609923 264.35988135 -15.45231002 259.09704128 -14.859375 253.1328125 C-11.88224684 242.22635762 -4.81669219 230.99563695 2.140625 222.1328125 C1.19703125 222.38675781 0.2534375 222.64070312 -0.71875 222.90234375 C-1.64143677 223.1487561 -1.64143677 223.1487561 -2.58276367 223.40014648 C-3.9490487 223.76768226 -5.31378367 224.14102316 -6.67700195 224.51977539 C-9.83032673 225.38472307 -12.86432253 226.13353885 -16.10546875 226.609375 C-26.12023568 228.17875415 -30.78322391 234.64783405 -36.859375 242.1328125 C-45.90333545 252.83754013 -55.78665855 261.08187895 -67.859375 268.1328125 C-68.54386719 268.53886719 -69.22835937 268.94492187 -69.93359375 269.36328125 C-73.22427134 270.93836963 -76.50870369 271.25532987 -80.12109375 271.296875 C-80.89670654 271.30581787 -81.67231934 271.31476074 -82.47143555 271.32397461 C-85.93697592 271.31865991 -89.39546418 271.23909158 -92.859375 271.1328125 C-86.75774517 281.56249647 -80.34938586 290.54188026 -71.859375 299.1328125 C-70.82103516 300.27943359 -70.82103516 300.27943359 -69.76171875 301.44921875 C-62.800454 308.94699716 -54.34119718 314.50719847 -45.859375 320.1328125 C-44.84875 320.80570313 -43.838125 321.47859375 -42.796875 322.171875 C-22.68595883 334.68406432 0.30245529 339.17160279 23.328125 342.8828125 C24.62137695 343.09381592 25.91462891 343.30481934 27.24707031 343.5222168 C44.77312317 346.21385978 62.333807 346.28545451 80.02734375 346.265625 C82.18528759 346.26630092 84.34323135 346.26727333 86.50117493 346.26852417 C90.99143204 346.26998664 95.48166907 346.26789313 99.97192383 346.26318359 C105.68705938 346.25747681 111.40214806 346.26078063 117.11728191 346.26675606 C121.56230515 346.27039227 126.0073175 346.26920928 130.45234108 346.26662827 C132.55837828 346.26596798 134.66441651 346.26675545 136.7704525 346.26910782 C168.0525844 347.09495241 168.0525844 347.09495241 196.36328125 335.47265625 C200.75812908 329.68691152 200.51099357 321.73779268 200.73828125 314.7578125 C200.79706703 313.2572229 200.79706703 313.2572229 200.85704041 311.72631836 C200.98026892 308.52872336 201.09180273 305.33084169 201.203125 302.1328125 C201.28115408 300.07939856 201.35992516 298.02601268 201.43945312 295.97265625 C201.64674911 290.53907123 201.83579683 285.10500237 202.01919556 279.67056274 C202.14536936 275.99458939 202.28009717 272.31898064 202.41479492 268.64331055 C203.07663355 249.94340222 203.32852911 231.26118399 203.32592773 212.55004883 C203.32584615 209.47479413 203.33287113 206.39968741 203.34643555 203.32446289 C203.45572045 178.08837817 202.93866244 152.91223834 199.328125 127.8828125 C199.15853271 126.68809326 198.98894043 125.49337402 198.81420898 124.26245117 C196.26467929 107.27901521 192.29003831 90.15162205 179.140625 78.1328125 C173.22177949 73.77090756 166.27796443 73.03687549 159.140625 72.1328125 C159.88119141 73.16341797 159.88119141 73.16341797 160.63671875 74.21484375 C161.27738281 75.11589844 161.91804688 76.01695312 162.578125 76.9453125 C163.21621094 77.83863281 163.85429688 78.73195313 164.51171875 79.65234375 C167.89412252 84.80300656 167.72687536 90.16143379 167.140625 96.1328125 C165.3458502 101.8523057 160.96316923 105.80067929 156.140625 109.1328125 C150.61441994 111.96017323 144.20228756 111.88857248 138.140625 111.1328125 C131.9857626 108.97953481 127.7967202 105.45076916 124.140625 100.1328125 C121.40123156 94.2958717 121.01299019 88.07615817 122.79296875 81.8515625 C125.88836692 74.94337774 131.62099804 70.68897266 138.140625 67.1328125 C133.34137824 64.54121925 128.62480252 62.56539251 123.453125 60.8203125 C106.0122214 54.68335284 95.11987082 45.29013827 84.22485352 30.69213867 C72.2699751 14.74020945 58.49697519 8.92840522 39.140625 6.1328125 C33.80496828 5.47076466 28.51110263 5.22908997 23.140625 5.1328125 C22.03154785 5.10703125 20.9224707 5.08125 19.77978516 5.0546875 C-10.46050974 4.42377771 -32.45805341 7.61463038 -55.48828125 28.8125 C-57.73713077 31.01318635 -59.83967465 33.27485049 -61.921875 35.6328125 C-83.27852661 59.74394391 -103.55466445 73.73787247 -136.48510742 75.92285156 C-146.15997365 76.43866204 -155.86117017 76.48005689 -165.546875 76.6328125 C-183.46514873 76.9043104 -183.46514873 76.9043104 -201.37109375 77.58984375 C-202.10341721 77.62561523 -202.83574066 77.66138672 -203.59025574 77.69824219 C-221.2325814 78.48908434 -221.2325814 78.48908434 -235.859375 87.1328125 C-249.84832878 105.85294809 -253.74970837 127.93969212 -255.9921875 150.59375 C-256.08019812 151.4781885 -256.16820873 152.36262699 -256.25888634 153.27386665 C-258.24682128 173.77298482 -258.36597591 194.18005988 -258.19232178 214.75695801 C-258.1650851 218.50456271 -258.15652633 222.25210428 -258.14860725 225.9997921 C-258.10832616 244.75257379 -257.9025328 263.50448026 -257.51961327 282.25346565 C-257.48379826 284.03671358 -257.45049246 285.82001412 -257.42000771 287.60336113 C-257.55083979 313.62640169 -257.55083979 313.62640169 -245.15234375 335.34375 C-234.85274833 343.37989089 -222.24802916 344.15276714 -209.6015625 344.68359375 C-208.67894119 344.72371582 -207.75631989 344.76383789 -206.80574036 344.80517578 C-191.06315164 345.42328197 -175.29917543 345.46824831 -159.546875 345.6328125 C-140.50836597 345.83343547 -121.47359403 346.05207248 -102.44140625 346.6015625 C-101.40648324 346.62977333 -101.40648324 346.62977333 -100.35065269 346.65855408 C-93.46124909 346.84980319 -86.67849334 347.10220984 -79.859375 348.1328125 C-79.859375 348.7928125 -79.859375 349.4528125 -79.859375 350.1328125 C-96.33346952 350.1563054 -112.80755851 350.1738714 -129.2816658 350.18462467 C-136.93306289 350.18975313 -144.58444949 350.19672901 -152.23583984 350.20825195 C-158.91467794 350.21830533 -165.59350843 350.22469092 -172.27235389 350.22690099 C-175.79974546 350.22819026 -179.3271153 350.23116021 -182.85449982 350.23854256 C-208.10017395 350.28903472 -208.10017395 350.28903472 -220.40161133 349.74707031 C-221.1940411 349.71597199 -221.98647087 349.68487368 -222.80291367 349.65283298 C-228.76223728 349.3376655 -233.31565662 348.05319048 -238.296875 344.8203125 C-238.97556641 344.42908203 -239.65425781 344.03785156 -240.35351562 343.63476562 C-251.0364337 337.35008309 -255.63319446 330.47515955 -259.015625 318.609375 C-263.22311816 301.27294484 -263.01670026 283.06862745 -262.9921875 265.328125 C-262.99286501 263.55296821 -262.9938387 261.77781151 -262.99508667 260.00265503 C-262.99654958 256.29652008 -262.99445951 252.59040943 -262.98974609 248.88427734 C-262.98412406 244.24931608 -262.98738917 239.61441318 -262.99318027 234.97945404 C-263.01231541 216.97596657 -262.9297392 198.98164667 -262.42578125 180.984375 C-262.40716663 180.29149509 -262.38855202 179.59861519 -262.36937332 178.88473892 C-260.39147381 107.49183824 -260.39147381 107.49183824 -237.859375 83.1328125 C-229.2665913 75.56787374 -220.97328539 73.91754192 -209.859375 73.5078125 C-208.98925781 73.46914063 -208.11914062 73.43046875 -207.22265625 73.390625 C-205.10187014 73.29740363 -202.98065315 73.21407114 -200.859375 73.1328125 C-201.81199219 72.61332031 -202.76460937 72.09382813 -203.74609375 71.55859375 C-205.01326659 70.85460884 -206.28017998 70.15015678 -207.546875 69.4453125 C-208.17271484 69.10564453 -208.79855469 68.76597656 -209.44335938 68.41601562 C-213.52642954 66.12864124 -216.75851671 63.71473853 -219.859375 60.1328125 C-220.609375 57.1953125 -220.609375 57.1953125 -219.859375 54.1328125 C-214.74930373 47.75708891 -206.71533266 44.49429214 -198.859375 43.1328125 C-197.25616232 43.04183307 -195.6499638 42.99509198 -194.04418945 42.98754883 C-193.11584793 42.98116898 -192.18750641 42.97478912 -191.23103333 42.96821594 C-189.74188667 42.96654671 -189.74188667 42.96654671 -188.22265625 42.96484375 C-186.67072823 42.95985115 -186.67072823 42.95985115 -185.08744812 42.95475769 C-182.89953047 42.94970115 -180.71160513 42.94734897 -178.52368164 42.94750977 C-175.2012027 42.94533173 -171.8790605 42.92718556 -168.55664062 42.90820312 C-166.42448029 42.90526713 -164.2923184 42.90328372 -162.16015625 42.90234375 C-161.17751297 42.89515823 -160.19486969 42.88797272 -159.18244934 42.88056946 C-142.49284408 42.93495735 -142.49284408 42.93495735 -136.359375 48.1328125 C-135.7303125 48.6484375 -135.10125 49.1640625 -134.453125 49.6953125 C-130.88909268 52.90992988 -130.88909268 52.90992988 -130.484375 55.9453125 C-130.96174185 60.00293068 -131.90254696 61.32382586 -134.859375 64.1328125 C-138.34987546 66.23877207 -141.99583138 67.80209367 -145.796875 69.2578125 C-148.0354637 69.94437809 -148.0354637 69.94437809 -148.859375 72.1328125 C-112.92715662 71.24152409 -92.10858329 60.76707286 -67.17578125 35.359375 C-66.17290317 34.34174601 -65.16997319 33.32416817 -64.16699219 32.30664062 C-62.22046859 30.33101278 -60.28992725 28.34148537 -58.36816406 26.34179688 C-42.61340749 10.27050131 -22.96083829 0.02628817 0 0 Z M-59.859375 116.1328125 C-61.05626953 117.14794922 -61.05626953 117.14794922 -62.27734375 118.18359375 C-80.63075381 134.20370206 -95.10316689 153.5176552 -101.859375 177.1328125 C-102.13523437 178.09703125 -102.41109375 179.06125 -102.6953125 180.0546875 C-109.50424277 205.53761464 -109.10009845 232.36579737 -99.859375 257.1328125 C-98.869375 256.8028125 -97.879375 256.4728125 -96.859375 256.1328125 C-94.52637675 256.09327016 -92.19229311 256.08879518 -89.859375 256.1328125 C-90.189375 257.7828125 -90.519375 259.4328125 -90.859375 261.1328125 C-92.509375 261.4628125 -94.159375 261.7928125 -95.859375 262.1328125 C-95.28592563 265.00005936 -94.9979235 265.994264 -92.859375 268.1328125 C-85.91961313 270.70309468 -78.41134831 268.98316001 -71.859375 266.1328125 C-58.92545711 258.36151628 -47.34167976 246.2150812 -39.859375 233.1328125 C-52.5633678 235.42369645 -65.29688987 241.18928138 -73.859375 251.1328125 C-73.859375 251.7928125 -73.859375 252.4528125 -73.859375 253.1328125 C-74.519375 253.1328125 -75.179375 253.1328125 -75.859375 253.1328125 C-69.81009793 241.61038 -56.41404201 236.53689501 -44.859375 232.1328125 C-43.25876723 231.76289426 -41.65516593 231.4052528 -40.046875 231.0703125 C-33.69612816 229.10603976 -30.03559951 222.18748924 -26.29296875 217.04785156 C-23.98594518 213.96605782 -21.4924203 211.05159193 -18.984375 208.1328125 C-15.58323725 204.15381759 -12.20335666 200.15997321 -8.859375 196.1328125 C-12.83521428 197.41316625 -12.83521428 197.41316625 -16.72265625 198.93359375 C-21.7544124 201.06125016 -26.40061617 202.07656648 -31.859375 201.1328125 C-34.421875 199.5703125 -34.421875 199.5703125 -35.859375 197.1328125 C-36.52496867 192.64005523 -36.13698304 189.51577148 -33.41796875 185.80078125 C-30.50463971 182.68300807 -27.13560639 180.04146558 -23.80859375 177.37890625 C-21.54770453 175.28635564 -21.54770453 175.28635564 -21.94140625 172.41796875 C-22.63118459 169.97054838 -22.63118459 169.97054838 -24.859375 169.1328125 C-37.39147948 168.10531469 -46.04032441 170.44833812 -55.859375 178.1328125 C-50.63645349 172.43507995 -44.97823936 168.4264179 -37.0234375 167.859375 C-35.51056173 167.81956248 -33.99751335 167.78592825 -32.484375 167.7578125 C-31.72898437 167.72042969 -30.97359375 167.68304688 -30.1953125 167.64453125 C-25.92964888 167.57741417 -24.34137954 167.75561884 -20.859375 170.48046875 C-18.859375 173.1328125 -18.859375 173.1328125 -18.234375 175.9453125 C-20.01844379 185.04406332 -26.69165906 189.89968397 -33.859375 195.1328125 C-33.199375 196.4528125 -32.539375 197.7728125 -31.859375 199.1328125 C-21.56840593 200.4559371 -13.19489807 196.91910631 -5.09619141 190.80078125 C-1.50852154 187.89137234 1.9144228 184.8037708 5.34667969 181.71435547 C8.40295043 179.01994585 11.57309067 176.4755301 14.765625 173.9453125 C15.63574219 173.24100098 15.63574219 173.24100098 16.5234375 172.52246094 C19.29631505 170.33326103 21.57281718 168.57661298 25.140625 168.1328125 C24.49996094 168.70128906 23.85929688 169.26976562 23.19921875 169.85546875 C20.49887088 172.26606245 17.81565455 174.69416259 15.140625 177.1328125 C14.21443359 177.97392578 14.21443359 177.97392578 13.26953125 178.83203125 C4.13505206 187.52840592 -2.89874706 198.5129286 -10.22387695 208.71948242 C-13.98456092 213.95240055 -17.82040239 219.10979929 -21.859375 224.1328125 C-17.82031319 226.1523434 -12.3849686 223.59819836 -8.171875 222.5703125 C-6.55635742 222.20969727 -6.55635742 222.20969727 -4.90820312 221.84179688 C1.83537191 220.20035035 6.41702997 218.27286081 11.140625 213.1328125 C12.01074219 212.20275391 12.01074219 212.20275391 12.8984375 211.25390625 C13.57519531 210.42052734 13.57519531 210.42052734 14.265625 209.5703125 C23.48777328 198.80771629 33.73513175 189.51768755 45.140625 181.1328125 C45.9764209 180.5138208 45.9764209 180.5138208 46.82910156 179.88232422 C66.698522 165.280692 66.698522 165.280692 78.1796875 165.7265625 C80.140625 166.1328125 80.140625 166.1328125 82.140625 168.1328125 C82.28308951 175.11357344 78.71618697 179.15426526 74.140625 184.1328125 C60.43880677 198.2310667 41.12658091 209.88590786 22.078125 214.8203125 C14.22550162 217.47927042 9.68879216 225.63630474 5.140625 232.1328125 C4.67172852 232.79410156 4.20283203 233.45539063 3.71972656 234.13671875 C-6.81677294 248.38619586 -6.81677294 248.38619586 -10.859375 265.1328125 C-10.06363987 267.75041955 -10.06363987 267.75041955 -7.859375 269.1328125 C-4.10253396 269.46824474 -1.43941273 269.32615841 2.140625 268.1328125 C2.21539062 267.29878906 2.29015625 266.46476563 2.3671875 265.60546875 C3.66853876 254.46743293 7.43793327 247.7617427 16.05078125 240.63671875 C21.05296311 237.03701778 26.58319703 233.82938884 32.828125 234.5703125 C33.92125 234.7559375 35.014375 234.9415625 36.140625 235.1328125 C36.140625 235.7928125 36.140625 236.4528125 36.140625 237.1328125 C35.05265625 237.33132813 33.9646875 237.52984375 32.84375 237.734375 C28.97198554 238.77697946 28.97198554 238.77697946 27.3125 241.96875 C26.84328125 243.13664063 26.3740625 244.30453125 25.890625 245.5078125 C23.16022474 251.84893738 19.71866805 256.3240765 14.60839844 260.96044922 C12.97673819 262.45781024 12.97673819 262.45781024 11.140625 265.1328125 C11.17125736 270.79979952 12.725556 273.65568372 16.4765625 277.62890625 C21.1226748 281.8278575 27.0542641 283.33690377 33.140625 284.1328125 C34.39230469 284.37128906 35.64398438 284.60976563 36.93359375 284.85546875 C40.00355989 284.81428278 40.91766224 284.35231361 43.13769531 282.16674805 C45.26135025 279.31404184 47.18344492 276.39244516 49.078125 273.3828125 C50.48309483 271.25826744 51.88933317 269.13456069 53.296875 267.01171875 C53.96203125 265.98965332 54.6271875 264.96758789 55.3125 263.91455078 C68.97573749 243.12409566 87.2469513 221.57494531 112.140625 215.1328125 C120.04897532 214.19155167 125.85214499 215.1733433 133.140625 218.1328125 C134.25525823 185.23827096 122.85414454 157.89316693 101.140625 133.1328125 C100.44582031 132.30523437 99.75101563 131.47765625 99.03515625 130.625 C80.847553 109.48895105 54.32207857 93.46160163 26.140625 91.1328125 C-4.97122263 89.03033685 -35.78887584 95.49466971 -59.859375 116.1328125 Z " fill="#EBEBEB" transform="translate(416.859375,199.8671875)"/>
<path d="M0 0 C21.33980171 18.55634931 38.4343232 45.74561307 44.78515625 73.421875 C45.12160156 74.80632812 45.12160156 74.80632812 45.46484375 76.21875 C49.87529299 97.60640798 45.89560409 119.16138205 38.78515625 139.421875 C38.4396875 140.43507813 38.09421875 141.44828125 37.73828125 142.4921875 C32.4196919 156.63655194 23.17813914 168.65063797 12.78515625 179.421875 C11.67329879 180.7278663 10.5685671 182.03997374 9.47265625 183.359375 C4.85721868 188.67312936 -0.43553596 193.3069341 -5.65625 198.01171875 C-7.05027843 199.27298257 -8.43040887 200.54956795 -9.80859375 201.828125 C-20.04693759 211.22496113 -29.24479245 214.06944441 -43.2109375 213.53125 C-53.13168705 212.98976659 -62.42353148 211.03310342 -71.875 208.12890625 C-76.4695519 207.15625842 -79.77103835 207.93036678 -84.15234375 209.421875 C-90.58284326 211.52162994 -97.0809514 211.60411468 -103.77734375 211.609375 C-104.60169922 211.62162109 -105.42605469 211.63386719 -106.27539062 211.64648438 C-112.09292931 211.66043531 -116.83833359 211.18902358 -121.65234375 207.609375 C-123.21484375 205.421875 -123.21484375 205.421875 -123.27734375 202.921875 C-121.88070403 199.6356639 -120.18548813 198.35624809 -117.21484375 196.421875 C-107.64155286 193.45269696 -95.25926411 194.76766048 -85.890625 197.765625 C-82.34132702 198.63610976 -79.86774694 198.94427943 -76.21484375 198.421875 C-73.3607267 196.50038904 -71.11326921 194.12125563 -68.77734375 191.609375 C-68.12499756 190.93318115 -67.47265137 190.2569873 -66.80053711 189.56030273 C-61.7266587 184.20843821 -57.24166309 178.61005425 -53.21484375 172.421875 C-54.45234375 172.504375 -55.68984375 172.586875 -56.96484375 172.671875 C-66.51993594 172.64178022 -75.28233853 168.92005459 -82.21484375 162.421875 C-84.25137192 160.12425347 -85.84946829 158.15262593 -87.21484375 155.421875 C-88.106875 155.46828125 -88.99890625 155.5146875 -89.91796875 155.5625 C-91.0884375 155.59859375 -92.25890625 155.6346875 -93.46484375 155.671875 C-94.625 155.71828125 -95.78515625 155.7646875 -96.98046875 155.8125 C-100.21484375 155.421875 -100.21484375 155.421875 -102.57421875 153.53125 C-106.37156798 148.64894385 -105.80777877 143.38610378 -105.21484375 137.421875 C-102.23771559 126.51542012 -95.17216094 115.28469945 -88.21484375 106.421875 C-89.71724609 106.87240234 -89.71724609 106.87240234 -91.25 107.33203125 C-92.59224065 107.71686948 -93.93470059 108.10094345 -95.27734375 108.484375 C-95.93412109 108.68353516 -96.59089844 108.88269531 -97.26757812 109.08789062 C-101.98835775 110.41342973 -105.40856169 110.41563163 -110.21484375 109.421875 C-107.38710998 107.88807292 -104.80095489 106.98282892 -101.66015625 106.30859375 C-100.79777344 106.11201172 -99.93539063 105.91542969 -99.046875 105.71289062 C-97.25209382 105.31275543 -95.45519077 104.922014 -93.65625 104.54101562 C-86.21706655 102.81703198 -82.06430357 99.94976165 -77.21484375 93.984375 C-67.65082146 82.84386552 -57.04645147 73.09051084 -45.21484375 64.421875 C-44.65909668 64.01066406 -44.10334961 63.59945312 -43.53076172 63.17578125 C-23.74675028 48.63537484 -23.74675028 48.63537484 -12.2734375 48.91796875 C-9.7361111 49.53906003 -8.76222553 50.33413768 -7.21484375 52.421875 C-6.93676732 59.37378583 -10.6707597 63.48968413 -15.21484375 68.421875 C-29.17922663 82.75253677 -48.54224346 95.34521939 -68.15234375 99.921875 C-80.1680342 103.92072739 -89.35157324 122.98023205 -95.21484375 133.421875 C-95.87419922 134.55689453 -95.87419922 134.55689453 -96.546875 135.71484375 C-99.04913255 140.28610577 -100.0376199 144.19377157 -100.21484375 149.421875 C-99.55484375 150.411875 -98.89484375 151.401875 -98.21484375 152.421875 C-95.77791064 152.78603547 -95.77791064 152.78603547 -93.08984375 152.609375 C-91.72472656 152.56876953 -91.72472656 152.56876953 -90.33203125 152.52734375 C-89.63335937 152.49253906 -88.9346875 152.45773437 -88.21484375 152.421875 C-88.24964844 151.865 -88.28445313 151.308125 -88.3203125 150.734375 C-88.62908488 142.02993445 -86.72216848 136.87179141 -81.02734375 130.234375 C-77.105783 126.07688295 -73.19523758 123.14949645 -68.21484375 120.421875 C-67.41046875 119.803125 -66.60609375 119.184375 -65.77734375 118.546875 C-61.87114195 116.83195714 -58.32585903 117.67848879 -54.21484375 118.421875 C-54.21484375 119.741875 -54.21484375 121.061875 -54.21484375 122.421875 C-56.52484375 122.751875 -58.83484375 123.081875 -61.21484375 123.421875 C-61.34117187 123.9890625 -61.4675 124.55625 -61.59765625 125.140625 C-63.83577714 133.41317308 -68.46562613 139.33237322 -74.64404297 145.046875 C-76.31781469 146.61851333 -76.31781469 146.61851333 -78.21484375 149.421875 C-78.14510696 155.36218177 -76.43954881 158.29105228 -72.21484375 162.421875 C-67.38702118 165.3070566 -62.80522953 166.26177704 -57.33984375 167.109375 C-56.16421875 167.30370117 -56.16421875 167.30370117 -54.96484375 167.50195312 C-53.04958533 167.81727006 -51.13239102 168.12079018 -49.21484375 168.421875 C-48.94857178 167.85903809 -48.6822998 167.29620117 -48.40795898 166.71630859 C-41.30195443 153.05102707 -31.0627069 140.24241736 -21.21484375 128.421875 C-20.08175781 127.05869141 -20.08175781 127.05869141 -18.92578125 125.66796875 C-13.59104982 119.49438379 -7.70710743 114.35030874 -1.21484375 109.421875 C-0.48652344 108.8546875 0.24179687 108.2875 0.9921875 107.703125 C10.74906845 100.60721158 22.70680948 96.55649326 34.78515625 98.421875 C37.19845895 99.29921807 39.45682114 100.32618789 41.78515625 101.421875 C42.9395284 69.02397666 31.12646791 41.75248387 9.78515625 17.421875 C9.07875 16.58269531 8.37234375 15.74351562 7.64453125 14.87890625 C-10.18728969 -5.8072889 -36.66123948 -21.30121852 -64.21484375 -23.578125 C-81.874396 -24.77152177 -100.41616481 -23.46686378 -117.21484375 -17.578125 C-120.08984375 -17.453125 -120.08984375 -17.453125 -122.21484375 -17.578125 C-121.88484375 -18.568125 -121.55484375 -19.558125 -121.21484375 -20.578125 C-81.38940853 -38.92467381 -32.8817568 -26.77098784 0 0 Z " fill="#F1F1F1" transform="translate(507.21484375,315.578125)"/>
<path d="M0 0 C0.495 0.99 0.495 0.99 1 2 C-0.02738281 2.49628906 -1.05476563 2.99257813 -2.11328125 3.50390625 C-31.93172618 18.0429712 -57.02588923 42.04045119 -68.29345703 73.87695312 C-70.27633236 79.83517147 -71.74000789 85.8519983 -73 92 C-73.22558594 93.05574219 -73.45117188 94.11148438 -73.68359375 95.19921875 C-76.7591126 112.44333477 -76.27043834 131.0336639 -72 148 C-71.57074219 149.79824219 -71.57074219 149.79824219 -71.1328125 151.6328125 C-70.45116872 154.43079791 -69.74297371 157.21780056 -69 160 C-67.515 159.01 -67.515 159.01 -66 158 C-63.66800612 157.92094936 -61.33167378 157.91201231 -59 158 C-58.375 160.375 -58.375 160.375 -58 163 C-60 165 -60 165 -62.625 165.125 C-63.40875 165.08375 -64.1925 165.0425 -65 165 C-63.30176284 168.55635258 -63.30176284 168.55635258 -60.25 170.8125 C-47.70467126 171.85794406 -39.53898911 167.95873489 -30 160 C-22.38438054 153.23975809 -16.04572112 145.16267709 -10 137 C-22.46343408 139.79691237 -33.11249467 144.62695399 -42 154 C-42.33 154.66 -42.66 155.32 -43 156 C-43.66 156 -44.32 156 -45 156 C-43.61549664 150.28892363 -39.62929549 147.22587401 -35 144 C-27.54538038 139.59133117 -19.9482831 136.2022636 -11.625 133.8125 C-3.92364748 131.20468074 -0.57974692 126.22810456 3.74072266 119.7890625 C5.91955122 116.69358834 8.40003778 113.86013982 10.875 111 C13.98125292 107.3823956 17.04264942 103.74139237 20 100 C19.23816406 100.3609375 18.47632813 100.721875 17.69140625 101.09375 C5.41634203 106.6106328 5.41634203 106.6106328 -1 105 C-4.0625 102.9375 -4.0625 102.9375 -6 100 C-6.6553868 95.99485846 -6.37400038 93.78200079 -4.625 90.125 C-1.75399485 86.21666088 2.21108932 83.27973828 5.953125 80.24609375 C8.2597331 78.15952362 8.2597331 78.15952362 8.296875 75.22265625 C8.19890625 74.48917969 8.1009375 73.75570312 8 73 C-4.02527052 72.46289114 -13.46936114 72.660691 -23 81 C-23.66 81 -24.32 81 -25 81 C-23.51048982 76.53146945 -19.95567381 74.21940477 -16 72 C-11.07997892 69.94939787 -6.68385436 69.63416394 -1.4375 69.625 C-0.69564453 69.60050781 0.04621094 69.57601562 0.81054688 69.55078125 C4.7294731 69.52984309 6.57613744 69.72859394 9.96484375 71.8984375 C12.29433019 74.30393405 12.90393949 75.32757644 13.375 78.625 C12.56844832 85.88396509 8.21081352 90.06568021 2.6875 94.5 C1.13432503 95.67905253 -0.42507959 96.8501552 -2 98 C-1.67 98.99 -1.34 99.98 -1 101 C9.29096907 102.3231246 17.66447693 98.78629381 25.76318359 92.66796875 C29.35179561 89.75779581 32.77340878 86.66787438 36.20605469 83.57714844 C39.25555236 80.89618015 42.43211896 78.38201531 45.625 75.875 C46.20507812 75.41383789 46.78515625 74.95267578 47.3828125 74.47753906 C53.0342591 70.04901752 53.0342591 70.04901752 56 69 C56.99 69.33 57.98 69.66 59 70 C58.46632813 70.38929688 57.93265625 70.77859375 57.3828125 71.1796875 C42.56504488 82.30583135 32.31566208 96.70688683 21.63476562 111.58740234 C17.87459452 116.82026952 14.03875521 121.97725715 10 127 C11.65 127.33 13.3 127.66 15 128 C13 130 13 130 9.5625 130.875 C2.83935961 133.25865887 -1.5302921 139.69839063 -6 145 C-15.06229853 155.69648351 -24.92063523 163.94518358 -37 171 C-37.68449219 171.40605469 -38.36898437 171.81210937 -39.07421875 172.23046875 C-42.36489634 173.80555713 -45.64932869 174.12251737 -49.26171875 174.1640625 C-50.42513794 174.17747681 -50.42513794 174.17747681 -51.61206055 174.19116211 C-55.07760092 174.18584741 -58.53608918 174.10627908 -62 174 C-55.89837017 184.42968397 -49.49001086 193.40906776 -41 202 C-40.30777344 202.76441406 -39.61554688 203.52882813 -38.90234375 204.31640625 C-31.941079 211.81418466 -23.48182218 217.37438597 -15 223 C-13.989375 223.67289063 -12.97875 224.34578125 -11.9375 225.0390625 C8.17341617 237.55125182 31.16183029 242.03879029 54.1875 245.75 C56.12737793 246.06650513 56.12737793 246.06650513 58.10644531 246.3894043 C75.63249817 249.08104728 93.193182 249.15264201 110.88671875 249.1328125 C113.04466259 249.13348842 115.20260635 249.13446083 117.36054993 249.13571167 C121.85080704 249.13717414 126.34104407 249.13508063 130.83129883 249.13037109 C136.54643438 249.12466431 142.26152306 249.12796813 147.97665691 249.13394356 C152.42168015 249.13757977 156.8666925 249.13639678 161.31171608 249.13381577 C163.41775328 249.13315548 165.52379151 249.13394295 167.6298275 249.13629532 C199.18489177 250.23437681 199.18489177 250.23437681 227.23828125 238.07421875 C228.88606004 236.13415104 229.84375193 234.60624498 230.75 232.25 C231.1625 231.1775 231.575 230.105 232 229 C232.33 229 232.66 229 233 229 C233.49114522 236.24439197 233.49114522 236.24439197 231.32421875 239.578125 C218.0215235 253.43975703 192.0868183 254.63191629 174.11254883 255.10157776 C169.80950589 255.15927921 165.50649679 255.16589246 161.203125 255.16796875 C159.60007704 255.1711965 157.99702934 255.17456159 156.39398193 255.17805481 C153.04568808 255.18400381 149.69741985 255.18589939 146.34912109 255.18530273 C142.97113639 255.18522193 139.59328863 255.19209671 136.21533203 255.20581055 C117.5546923 255.28041103 99.07058374 255.14376265 80.48297119 253.25125122 C78.20906975 253.02115571 75.93487984 252.81360538 73.65771484 252.61889648 C59.96477904 251.43350905 46.4630578 250.04630437 33.14648438 246.55908203 C30.80668047 245.94964721 28.45909379 245.37854316 26.109375 244.80859375 C2.413079 238.95745637 -18.35821663 227.77831194 -37 212 C-37.88429688 211.26265625 -38.76859375 210.5253125 -39.6796875 209.765625 C-56.21638686 195.43069581 -66.94280848 177.50056291 -74 157 C-74.350625 156.19433594 -74.70125 155.38867188 -75.0625 154.55859375 C-76.36488551 151.00416662 -76.94313973 147.41349273 -77.5625 143.6875 C-77.68818359 142.96626953 -77.81386719 142.24503906 -77.94335938 141.50195312 C-83.82914662 107.14251447 -78.06098297 74.24558531 -58.26000977 45.34301758 C-53.63458673 38.80684045 -48.53701605 32.78822283 -43 27 C-42.45214844 26.40058594 -41.90429688 25.80117188 -41.33984375 25.18359375 C-34.99562799 18.4652719 -9.51006212 -4.75503106 0 0 Z " fill="#EDEDED" transform="translate(386,297)"/>
<path d="M0 0 C1 2 1 2 0.21484375 4.6171875 C-6.47068706 21.66835782 -14.85596375 36.02549984 -27.43359375 49.28515625 C-29.58481164 51.5607977 -31.65219683 53.87161611 -33.6875 56.25 C-44.17248001 68.27178559 -55.52113144 80.13054852 -72 82 C-84.29769242 82.66891214 -95.91752015 81.22816313 -108 79 C-108 78.01 -108 77.02 -108 76 C-106.375 74.73828125 -106.375 74.73828125 -104 73.3125 C-98.65928106 69.74438019 -94.22111543 65.5393292 -89.6875 61 C-89.00623047 60.32364502 -88.32496094 59.64729004 -87.62304688 58.95043945 C-84.52358088 55.80944914 -81.73334135 52.74431839 -79.28515625 49.06640625 C-77 46 -77 46 -74.921875 45.08984375 C-74.20515625 45.03957031 -73.4884375 44.98929687 -72.75 44.9375 C-44.68649097 40.94624538 -17.55961383 21.57853953 0 0 Z " fill="#030303" transform="translate(546,441)"/>
<path d="M0 0 C1.76953125 1.33984375 1.76953125 1.33984375 3 3 C3.27807643 9.95191083 -0.45591595 14.06780913 -5 19 C-18.96438288 33.33066177 -38.32739971 45.92334439 -57.9375 50.5 C-69.96446761 54.50260546 -79.12000655 73.55819802 -85 84 C-85.65935547 85.10021484 -85.65935547 85.10021484 -86.33203125 86.22265625 C-89.1999549 91.32006119 -89.76230116 96.20014824 -90 102 C-91.32 102 -92.64 102 -94 102 C-96.4885428 97.02291439 -95.61955394 90.26968298 -94.19921875 85.06640625 C-90.31390816 75.22628974 -84.53570611 65.32574026 -78 57 C-79.00160156 57.30035156 -80.00320313 57.60070312 -81.03515625 57.91015625 C-82.3773969 58.29499448 -83.71985684 58.67906845 -85.0625 59.0625 C-85.71927734 59.26166016 -86.37605469 59.46082031 -87.05273438 59.66601562 C-91.773514 60.99155473 -95.19371794 60.99375663 -100 60 C-97.17226623 58.46619792 -94.58611114 57.56095392 -91.4453125 56.88671875 C-90.58292969 56.69013672 -89.72054688 56.49355469 -88.83203125 56.29101562 C-87.03725007 55.89088043 -85.24034702 55.500139 -83.44140625 55.11914062 C-76.0022228 53.39515698 -71.84945982 50.52788665 -67 44.5625 C-57.43597771 33.42199052 -46.83160772 23.66863584 -35 15 C-34.44425293 14.58878906 -33.88850586 14.17757813 -33.31591797 13.75390625 C-10.9538082 -2.68129271 -10.9538082 -2.68129271 0 0 Z " fill="#F0F0F0" transform="translate(497,365)"/>
<path d="M0 0 C2.125 2.4375 2.125 2.4375 2.75 5.5625 C0.06234628 22.22595309 -15.12476672 34.80907835 -28.06298828 44.16894531 C-40.30643459 52.7403475 -53.87613405 60.43304326 -68.875 62.4375 C-67.61191946 59.05371909 -66.16919412 56.11821673 -64.1875 53.1015625 C-63.65866211 52.29187012 -63.12982422 51.48217773 -62.58496094 50.64794922 C-62.02067383 49.79475098 -61.45638672 48.94155273 -60.875 48.0625 C-60.29266602 47.1770752 -59.71033203 46.29165039 -59.11035156 45.37939453 C-57.9262525 43.58053718 -56.74039111 41.78283859 -55.55273438 39.98632812 C-54.05671814 37.71356772 -52.57885756 35.43058674 -51.109375 33.140625 C-46.26789817 25.64372249 -41.20827894 18.78235715 -34.875 12.4375 C-34.24207031 11.79296875 -33.60914063 11.1484375 -32.95703125 10.484375 C-25.15696163 3.08637083 -10.7106443 -5.82100233 0 0 Z " fill="#040404" transform="translate(542.875,419.5625)"/>
<path d="M0 0 C0.66 0.66 1.32 1.32 2 2 C1.49210937 2.64324219 0.98421875 3.28648437 0.4609375 3.94921875 C-13.826489 22.70481046 -17.67352524 44.08539076 -20 67 C-20.0818454 67.68301178 -20.1636908 68.36602356 -20.24801636 69.06973267 C-22.68283578 89.43878166 -22.26672244 109.91171424 -22.19561768 130.38818359 C-22.18493391 134.23691149 -22.1851985 138.08560321 -22.185606 141.93434334 C-22.18521142 161.02390822 -22.0627555 180.11175331 -21.668787 199.19759178 C-21.63249043 200.97651299 -21.59870396 202.75548765 -21.56773949 204.53450966 C-21.68322973 230.52436658 -21.68322973 230.52436658 -9.29296875 252.2109375 C1.00662667 260.24707839 13.61134584 261.01995464 26.2578125 261.55078125 C27.18043381 261.59090332 28.10305511 261.63102539 29.05363464 261.67236328 C44.79622336 262.29046947 60.56019957 262.33543581 76.3125 262.5 C95.35100903 262.70062297 114.38578097 262.91925998 133.41796875 263.46875 C134.45289176 263.49696083 134.45289176 263.49696083 135.50872231 263.52574158 C142.39812591 263.71699069 149.18088166 263.96939734 156 265 C156 265.66 156 266.32 156 267 C139.52590548 267.0234929 123.05181649 267.0410589 106.5777092 267.05181217 C98.92631211 267.05694063 91.27492551 267.06391651 83.62353516 267.07543945 C76.94469706 267.08549283 70.26586657 267.09187842 63.58702111 267.09408849 C60.05962954 267.09537776 56.5322597 267.09834771 53.00487518 267.10573006 C27.75920105 267.15622222 27.75920105 267.15622222 15.45776367 266.61425781 C14.6653339 266.58315949 13.87290413 266.55206118 13.05646133 266.52002048 C7.09713772 266.204853 2.54371838 264.92037798 -2.4375 261.6875 C-3.11619141 261.29626953 -3.79488281 260.90503906 -4.49414062 260.50195312 C-15.1770587 254.21727059 -19.77381946 247.34234705 -23.15625 235.4765625 C-27.36374316 218.14013234 -27.15732526 199.93581495 -27.1328125 182.1953125 C-27.13349001 180.42015571 -27.1344637 178.64499901 -27.13571167 176.86984253 C-27.13717458 173.16370758 -27.13508451 169.45759693 -27.13037109 165.75146484 C-27.12474906 161.11650358 -27.12801417 156.48160068 -27.13380527 151.84664154 C-27.15294041 133.84315407 -27.0703642 115.84883417 -26.56640625 97.8515625 C-26.53848433 96.81224264 -26.53848433 96.81224264 -26.50999832 95.75192642 C-24.63212877 27.96963823 -24.63212877 27.96963823 -5 4 C-2.1875 1.5625 -2.1875 1.5625 0 0 Z " fill="#E8E8E8" transform="translate(181,283)"/>
<path d="M0 0 C0.73980103 0.00398804 1.47960205 0.00797607 2.24182129 0.01208496 C11.25645814 0.06897651 20.18848018 0.33307695 29.125 1.625 C29.89666504 1.73408691 30.66833008 1.84317383 31.46337891 1.95556641 C36.37986605 2.8090999 39.4855352 4.41509282 43.375 7.375 C43.3125 9.62109375 43.3125 9.62109375 42.375 12.375 C40.01040675 14.02836794 37.95563569 15.22592262 35.375 16.4375 C34.65876465 16.78039062 33.9425293 17.12328125 33.20458984 17.4765625 C15.23694084 25.70375151 -4.65146404 26.94115956 -23.625 21.375 C-28.69814616 19.40101317 -34.54491657 17.06846047 -37.625 12.375 C-37.75 9.875 -37.75 9.875 -36.625 7.375 C-27.78724858 -1.21024424 -11.54797909 -0.12624634 0 0 Z " fill="#040404" transform="translate(238.625,246.625)"/>
<path d="M0 0 C6.2477991 5.04584156 11.27379859 11.43185405 12.61328125 19.46875 C11.33605627 26.11031989 7.21628821 29.87776529 1.98828125 33.71875 C-2.1564275 36.00924694 -6.36781465 36.50748934 -11.01171875 35.71875 C-18.07015454 33.15011623 -22.72022218 30.07259349 -26.26171875 23.34375 C-27.93137723 17.49994532 -27.28143579 12.88818005 -24.41015625 7.64453125 C-18.9730623 0.15713651 -8.65155905 -5.51011916 0 0 Z " fill="#040404" transform="translate(569.01171875,272.28125)"/>
<path d="M0 0 C0.48554356 6.3303887 -1.55744783 8.75570202 -5.5390625 13.421875 C-9.6799925 17.75999215 -14.20475053 21.41150205 -19 25 C-19.94230469 25.71800781 -20.88460937 26.43601562 -21.85546875 27.17578125 C-31.88837035 34.48305628 -44.72197973 43.40229004 -57 46 C-54.29811815 39.66608026 -48.69684574 34.91580993 -44 30 C-43.35482422 29.3208252 -42.70964844 28.64165039 -42.04492188 27.94189453 C-14.517071 -0.87102426 -14.517071 -0.87102426 0 0 Z " fill="#040404" transform="translate(496,367)"/>
<path d="M0 0 C0.74185547 -0.02449219 1.48371094 -0.04898437 2.24804688 -0.07421875 C6.1669731 -0.09515691 8.01363744 0.10359394 11.40234375 2.2734375 C13.73183019 4.67893405 14.34143949 5.70257644 14.8125 9 C14.00594832 16.25896509 9.64831352 20.44068021 4.125 24.875 C2.57182503 26.05405253 1.01242041 27.2251552 -0.5625 28.375 C-0.2325 29.365 0.0975 30.355 0.4375 31.375 C8.63559647 32.2464512 13.87190869 30.67984495 21.00390625 26.58984375 C21.80699219 26.18894531 22.61007812 25.78804688 23.4375 25.375 C24.0975 25.705 24.7575 26.035 25.4375 26.375 C24.4375 29.375 24.4375 29.375 21.375 30.98046875 C20.06953633 31.52499818 18.75644049 32.05147782 17.4375 32.5625 C16.75703613 32.82716064 16.07657227 33.09182129 15.37548828 33.36450195 C10.13754261 35.30275341 6.04291124 36.36950845 0.4375 35.375 C-2.625 33.3125 -2.625 33.3125 -4.5625 30.375 C-5.2178868 26.36985846 -4.93650038 24.15700079 -3.1875 20.5 C-0.31649485 16.59166088 3.64858932 13.65473828 7.390625 10.62109375 C9.6972331 8.53452362 9.6972331 8.53452362 9.734375 5.59765625 C9.63640625 4.86417969 9.5384375 4.13070313 9.4375 3.375 C-2.58777052 2.83789114 -12.03186114 3.035691 -21.5625 11.375 C-22.2225 11.375 -22.8825 11.375 -23.5625 11.375 C-22.07298982 6.90646945 -18.51817381 4.59440477 -14.5625 2.375 C-9.64247892 0.32439787 -5.24635436 0.00916394 0 0 Z " fill="#EDEDED" transform="translate(384.5625,366.625)"/>
<path d="M0 0 C1.78125 1.33203125 1.78125 1.33203125 3 3 C3.27807643 9.95191083 -0.45591595 14.06780913 -5 19 C-17.59036836 31.92060753 -38.58038058 48.05173503 -57 50 C-57.99 49.34 -58.98 48.68 -60 48 C-59.33097656 47.74347656 -58.66195313 47.48695313 -57.97265625 47.22265625 C-42.12152054 40.90347866 -28.28045097 32.70378886 -15 22 C-14.45432373 21.5661499 -13.90864746 21.1322998 -13.34643555 20.68530273 C-7.91374417 16.28644126 -2.87423059 11.32207624 -1.0625 4.4375 C-1.041875 3.633125 -1.02125 2.82875 -1 2 C-7.1551455 3.0607507 -11.68064574 4.74325249 -17 8 C-17.66 8 -18.32 8 -19 8 C-19 6.68 -19 5.36 -19 4 C-12.88326976 0.6904648 -7.01721313 -1.40597592 0 0 Z " fill="#E6E6E6" transform="translate(497,365)"/>
<path d="M0 0 C-0.75973581 18.9933953 -15.37552405 36.91605439 -28 50 C-29.11185746 51.3059913 -30.21658915 52.61809874 -31.3125 53.9375 C-34.56970622 57.67004014 -38.09343649 61.09606698 -41.6875 64.5 C-42.24671143 65.04132568 -42.80592285 65.58265137 -43.38208008 66.14038086 C-47.53137268 70 -47.53137268 70 -52 70 C-48.32889246 65.6343586 -44.54866119 61.38554551 -40.6875 57.1875 C-40.21086914 56.66824951 -39.73423828 56.14899902 -39.24316406 55.61401367 C-37.04833607 53.22393343 -34.84951404 50.83805319 -32.640625 48.4609375 C-20.85046589 35.62555152 -11.00164124 22.27642094 -4.95214844 5.81103516 C-2.78812323 0 -2.78812323 0 0 0 Z " fill="#EFEFEF" transform="translate(548,445)"/>
<path d="M0 0 C0.66 0.33 1.32 0.66 2 1 C-0.81666784 10.32508479 -6.1363717 17.7291554 -13.30078125 24.24609375 C-15.05508221 26.05685497 -16.00365943 27.69880731 -17 30 C-17.58985471 21.51920012 -17.68131708 14.7130965 -12 8 C-8.32400611 4.58795663 -4.7903093 1.59676977 0 0 Z " fill="#E7E7E7" transform="translate(444,439)"/>
<path d="M0 0 C1.38832031 -0.01836914 1.38832031 -0.01836914 2.8046875 -0.03710938 C8.51693005 -0.04921158 13.39701444 0.55699371 18.875 2.1875 C14.09205505 6.97044495 5.99963385 6.38957042 -0.375 6.4375 C-1.40294678 6.45127686 -1.40294678 6.45127686 -2.45166016 6.46533203 C-6.44818808 6.44095701 -9.52772448 5.94430898 -13.125 4.1875 C-12.795 3.1975 -12.465 2.2075 -12.125 1.1875 C-8.44107117 -0.65446442 -4.05439782 0.00275435 0 0 Z " fill="#0C0C0C" transform="translate(402.125,516.8125)"/>
<path d="M0 0 C0.33 0.66 0.66 1.32 1 2 C-2.33961515 9.0313303 -6.63437615 15.37887025 -12 21 C-12.33 21 -12.66 21 -13 21 C-12.96637502 13.73700415 -11.10294675 9.19679405 -6 4 C-4.05284395 2.43963793 -2.17575153 1.24328659 0 0 Z " fill="#151515" transform="translate(440,441)"/>
<path d="M0 0 C-3.06536603 1.67416145 -6.23929185 2.81122915 -9.53393555 3.953125 C-19.98736826 7.6243364 -28.09393682 12.15160655 -35 21 C-35.66 21 -36.32 21 -37 21 C-35.61786242 15.2986825 -31.63399467 12.20764454 -27 9 C-7.99232101 -1.85867931 -7.99232101 -1.85867931 0 0 Z " fill="#D1D1D1" transform="translate(378,432)"/>
<path d="M0 0 C1.12535156 -0.03673828 1.12535156 -0.03673828 2.2734375 -0.07421875 C5.99285063 -0.09400286 7.95171207 0.03558336 10.8984375 2.3984375 C11.62933594 3.37683594 11.62933594 3.37683594 12.375 4.375 C11.385 4.705 10.395 5.035 9.375 5.375 C9.375 4.715 9.375 4.055 9.375 3.375 C-2.65027052 2.83789114 -12.09436114 3.035691 -21.625 11.375 C-22.285 11.375 -22.945 11.375 -23.625 11.375 C-22.13548982 6.90646945 -18.58067381 4.59440477 -14.625 2.375 C-9.68762491 0.31418257 -5.26588505 0.00914216 0 0 Z " fill="#CCCCCC" transform="translate(384.625,366.625)"/>
<path d="M0 0 C0.66 0.33 1.32 0.66 2 1 C1 4 1 4 -1.984375 5.640625 C-3.23460026 6.18859607 -4.4901136 6.72462227 -5.75 7.25 C-6.37132812 7.53101563 -6.99265625 7.81203125 -7.6328125 8.1015625 C-11.47874639 9.74054698 -13.99250149 10.31543844 -18 9 C-15.77906401 6.77906401 -14.16618359 6.16269654 -11.25 5.0625 C-8.20696647 3.89277902 -5.40380279 2.69125501 -2.5 1.1875 C-1.675 0.795625 -0.85 0.40375 0 0 Z " fill="#D1D1D1" transform="translate(455,405)"/>
<path d="M0 0 C-0.99 1.485 -0.99 1.485 -2 3 C-4.73091351 3.2496156 -7.21451613 3.32663631 -9.9375 3.25 C-11.03094727 3.24226563 -11.03094727 3.24226563 -12.14648438 3.234375 C-15.34019809 3.18753777 -17.95307672 3.01564109 -21 2 C-21 1.34 -21 0.68 -21 0 C-20.11957031 0.01160156 -19.23914063 0.02320313 -18.33203125 0.03515625 C-17.17058594 0.04417969 -16.00914062 0.05320312 -14.8125 0.0625 C-13.66394531 0.07410156 -12.51539063 0.08570313 -11.33203125 0.09765625 C-8.07821865 0.09888432 -8.07821865 0.09888432 -5.26171875 -0.56640625 C-3 -1 -3 -1 0 0 Z " fill="#DFDFDF" transform="translate(343,468)"/>
<path d="M0 0 C-0.33 0.66 -0.66 1.32 -1 2 C-2.8203125 2.4921875 -2.8203125 2.4921875 -5.125 2.875 C-9.7750101 3.79461922 -12.97898551 5.53815439 -17 8 C-17.66 8 -18.32 8 -19 8 C-19 6.68 -19 5.36 -19 4 C-12.511583 0.48935892 -7.35174806 -0.55253221 0 0 Z " fill="#D8D8D8" transform="translate(497,365)"/>
<path d="M0 0 C0.66 0.33 1.32 0.66 2 1 C1 4 1 4 -1.3359375 5.421875 C-8.70029598 8.64023218 -14.09267907 9.57212483 -22 8 C-22 7.67 -22 7.34 -22 7 C-20.74896484 6.87044922 -20.74896484 6.87044922 -19.47265625 6.73828125 C-12.65981274 5.8876513 -7.47181656 4.72262501 -1.70703125 0.92578125 C-1.14371094 0.62027344 -0.58039063 0.31476563 0 0 Z " fill="#D7D7D7" transform="translate(408,392)"/>
<path d="M0 0 C0.33 0.99 0.66 1.98 1 3 C-11.48519362 6.62870159 -11.48519362 6.62870159 -18 5 C-14.72557244 3.18087358 -11.50729653 2.25853159 -7.875 1.375 C-6.29332031 0.98441406 -6.29332031 0.98441406 -4.6796875 0.5859375 C-2 0 -2 0 0 0 Z " fill="#C4C4C4" transform="translate(415,420)"/>
<path d="M0 0 C0.61875 0.33 1.2375 0.66 1.875 1 C6.26211512 2.40387684 10.43151427 2.15967523 15 2 C14.67 2.99 14.34 3.98 14 5 C12.22950311 5.05410687 10.45853151 5.09284119 8.6875 5.125 C7.20830078 5.15980469 7.20830078 5.15980469 5.69921875 5.1953125 C3 5 3 5 0 3 C0 2.01 0 1.02 0 0 Z " fill="#E0E0E0" transform="translate(404,466)"/>
<path d="M0 0 C0.66 0.33 1.32 0.66 2 1 C2 1.99 2 2.98 2 4 C-0.97 5.32 -3.94 6.64 -7 8 C-7.33 7.34 -7.66 6.68 -8 6 C-5.63404067 3.38499232 -3.13950774 1.61000397 0 0 Z " fill="#DDDDDD" transform="translate(464,400)"/>
<path d="M0 0 C-3.82089454 2.22885515 -7.68638323 3.16510643 -12 4 C-12.66 3.34 -13.32 2.68 -14 2 C-8.79666866 -0.24281523 -5.65735415 -1.55577239 0 0 Z " fill="#C6C6C6" transform="translate(378,432)"/>
<path d="M0 0 C-1.10095362 3.30286086 -1.6896019 3.78510901 -4.4375 5.6875 C-5.36369141 6.34298828 -5.36369141 6.34298828 -6.30859375 7.01171875 C-8 8 -8 8 -10 8 C-8.48502075 3.75805811 -4.70198172 0 0 0 Z " fill="#DADADA" transform="translate(371,370)"/>
<path d="M0 0 C-1.28913487 0.67154933 -2.58140204 1.33708859 -3.875 2 C-4.59429687 2.37125 -5.31359375 2.7425 -6.0546875 3.125 C-8 4 -8 4 -10 4 C-10 3.34 -10 2.68 -10 2 C-4.10714286 -1.34821429 -4.10714286 -1.34821429 0 0 Z " fill="#DFDFDF" transform="translate(366,436)"/>
<path d="M0 0 C-1 2 -1 2 -3 2.6875 C-7.09343723 3.11389971 -10.94019216 2.57491832 -15 2 C-15 1.67 -15 1.34 -15 1 C-13.43784452 0.83013455 -11.8752548 0.66426036 -10.3125 0.5 C-9.44238281 0.4071875 -8.57226562 0.314375 -7.67578125 0.21875 C-5.10276661 0.00840136 -2.58015636 -0.03719144 0 0 Z " fill="#C0C0C0" transform="translate(401,398)"/>
<path d="M0 0 C-0.33 2.64 -0.66 5.28 -1 8 C-1.99 7.67 -2.98 7.34 -4 7 C-3.625 4.0625 -3.625 4.0625 -3 1 C-1 0 -1 0 0 0 Z " fill="#E7E7E7" transform="translate(548,445)"/>
<path d="M0 0 C-1.0625 1.5625 -1.0625 1.5625 -3 3 C-6.6875 2.6875 -6.6875 2.6875 -10 2 C-6.5980513 -0.09350689 -3.94727588 -0.17942163 0 0 Z " fill="#D1D1D1" transform="translate(407,423)"/>
<path d="M0 0 C-2.31 1.32 -4.62 2.64 -7 4 C-7.66 3.34 -8.32 2.68 -9 2 C-3.375 -1.125 -3.375 -1.125 0 0 Z " fill="#D7D7D7" transform="translate(445,367)"/>
</svg>
